<?xml version="1.0" standalone="no"?>
<!DOCTYPE svg PUBLIC "-//W3C//DTD SVG 20010904//EN"
 "http://www.w3.org/TR/2001/REC-SVG-20010904/DTD/svg10.dtd">
<svg version="1.0" xmlns="http://www.w3.org/2000/svg"
 width="460.000000pt" height="460.000000pt" viewBox="0 0 460.000000 460.000000"
 preserveAspectRatio="xMidYMid meet">
<metadata>
Created by potrace 1.15, written by Peter Selinger 2001-2017
</metadata>
<g transform="translate(0.000000,460.000000) scale(0.100000,-0.100000)"
fill="#000000" stroke="none">
<path d="M2410 4065 c-42 -126 -77 -178 -227 -341 -114 -123 -159 -180 -191
-240 -23 -44 -42 -72 -42 -63 0 39 -71 96 -129 105 -14 2 -89 5 -166 7 -133 2
-142 4 -193 31 -64 36 -71 44 -91 106 -21 65 -36 54 -57 -40 -19 -86 -23 -383
-7 -462 l10 -46 -126 -7 c-69 -4 -185 -5 -258 -2 -107 5 -142 10 -192 31 -34
13 -61 21 -61 16 0 -4 16 -30 35 -56 19 -27 98 -143 175 -259 l140 -209 -25
-13 c-14 -8 -25 -21 -25 -29 0 -9 27 -45 60 -81 64 -70 73 -88 39 -78 -24 8
-154 -4 -145 -13 4 -3 46 -5 94 -3 l88 2 50 -71 c27 -39 82 -114 122 -167 40
-53 71 -98 68 -100 -2 -2 -28 9 -57 25 -35 19 -93 38 -162 52 -146 29 -154 21
-15 -14 129 -32 238 -82 299 -138 23 -21 46 -38 51 -38 5 0 6 -6 2 -12 -4 -7
-4 -10 0 -6 4 3 29 -7 54 -23 25 -16 52 -29 59 -29 19 0 16 -8 -12 -42 -17
-20 -25 -42 -25 -66 0 -44 23 -115 39 -120 6 -2 9 -7 6 -11 -2 -5 25 -39 60
-77 36 -37 65 -70 65 -74 0 -3 -33 -23 -74 -44 -41 -22 -73 -43 -71 -47 3 -4
-2 -10 -11 -13 -9 -4 -14 -9 -10 -13 3 -3 23 7 44 24 21 17 61 43 90 59 l52
28 25 -24 c14 -13 34 -42 45 -64 11 -23 29 -56 40 -74 19 -30 21 -32 42 -18
53 34 162 57 254 54 100 -3 100 -3 67 -83 -41 -98 -99 -148 -208 -182 -49 -15
-164 -7 -250 17 -44 13 -102 29 -130 37 -27 8 -82 15 -121 15 -58 1 -78 -3
-108 -21 -47 -29 -106 -106 -107 -140 l-1 -26 -8 25 c-4 14 -8 19 -9 13 -1
-19 -21 -16 -21 3 0 8 -4 13 -9 10 -22 -14 -61 141 -61 243 0 73 22 171 39
171 4 0 14 18 21 40 9 29 16 37 22 28 7 -10 8 -9 6 2 -1 8 17 35 41 60 24 25
40 39 36 32 -4 -7 17 5 47 28 29 22 77 48 105 57 68 21 61 28 -13 13 -43 -9
-59 -9 -62 -1 -2 6 -8 11 -13 11 -6 0 -7 -5 -4 -10 4 -6 -13 -10 -44 -10 -30
0 -51 5 -54 13 -3 7 -6 8 -6 1 -1 -13 -86 -1 -105 15 -6 5 -14 9 -17 8 -11 -3
-109 62 -109 73 0 15 11 12 25 -6 6 -9 18 -15 25 -12 17 5 -71 63 -92 59 -11
-1 -18 4 -18 14 0 10 5 14 13 10 6 -4 4 0 -5 8 -10 8 -15 17 -11 21 4 4 1 5
-7 2 -10 -3 -28 12 -50 41 -66 87 -93 114 -138 141 -39 22 -61 27 -140 30 -52
3 -89 8 -82 12 8 5 6 9 -6 14 -10 4 -15 4 -11 0 8 -9 -11 -34 -26 -34 -7 0 -7
4 1 12 22 22 12 32 -11 10 -13 -12 -31 -22 -41 -22 -9 0 -29 -6 -44 -14 -15
-7 -38 -17 -51 -21 l-24 -7 19 25 c13 18 25 25 39 21 15 -4 17 -3 6 4 -11 8
-6 17 24 44 21 18 43 38 49 43 31 29 96 73 136 92 143 68 179 83 207 85 18 1
30 5 27 9 -2 4 6 10 18 12 20 4 19 4 -5 6 -65 3 -263 -86 -357 -160 -71 -56
-160 -147 -184 -189 l-19 -33 24 7 c105 29 198 26 302 -11 64 -23 140 -92 200
-181 76 -114 118 -143 253 -177 87 -21 112 -35 64 -34 -19 0 -60 -8 -90 -19
-45 -16 -55 -23 -55 -42 0 -19 9 -26 55 -41 30 -9 71 -20 91 -23 l36 -6 -26
-53 c-20 -40 -27 -71 -29 -134 -5 -99 7 -159 55 -281 38 -96 59 -114 78 -69 6
12 37 36 72 53 74 38 156 43 255 17 43 -11 105 -16 193 -17 149 0 186 10 273
75 29 22 56 38 59 35 7 -7 37 24 39 42 2 8 7 19 12 24 5 5 8 -11 8 -41 -1 -27
-4 -53 -8 -56 -4 -4 -21 0 -37 8 -40 20 -40 8 -1 -18 35 -23 35 -23 9 -54 -17
-21 -25 -23 -74 -18 -31 3 -55 2 -55 -4 0 -5 13 -9 29 -9 15 0 49 -3 75 -6 55
-8 59 -24 20 -72 -21 -25 -35 -32 -62 -32 -84 0 -10 -13 213 -36 55 -6 58 -7
36 -19 -15 -8 -20 -15 -12 -19 22 -14 11 -28 -16 -21 -16 3 -38 7 -50 7 -13 0
-20 4 -17 9 3 5 -2 9 -11 9 -9 0 -13 -4 -10 -10 3 -5 1 -10 -4 -10 -10 0 -15
13 -13 31 2 11 -32 16 -52 9 -17 -6 -17 -7 -2 -22 9 -10 12 -18 5 -20 -16 -5
-219 11 -269 22 -25 6 -61 13 -80 16 -84 12 -174 35 -189 47 -9 7 -29 14 -46
15 l-30 1 28 -9 c16 -5 34 -13 40 -18 23 -19 113 -44 222 -62 61 -11 137 -24
170 -30 33 -6 175 -13 316 -17 215 -5 276 -3 375 11 127 19 233 43 249 56 6 5
28 11 50 15 22 4 47 11 55 16 20 12 -42 1 -100 -17 -42 -13 -198 -45 -280 -58
-92 -14 -180 -18 -192 -8 -7 6 -39 10 -70 9 -31 -1 -55 0 -52 2 2 2 -1 10 -6
16 -7 8 -4 17 9 29 15 14 42 19 113 21 103 4 282 16 285 19 2 1 -134 2 -301 2
-168 -1 -308 2 -312 7 -4 4 7 23 26 41 18 19 30 41 28 48 -4 10 16 13 96 12
99 -1 101 -2 114 -29 13 -24 12 -29 -10 -52 l-23 -26 23 14 c28 17 39 54 22
74 -15 18 -14 18 85 34 93 16 154 32 161 42 3 5 -2 9 -10 9 -8 0 -17 -4 -20
-9 -3 -4 -40 -14 -83 -20 -43 -7 -88 -14 -101 -16 -25 -4 -25 -4 3 42 15 24
30 34 57 38 21 4 44 14 51 23 29 40 43 44 78 23 33 -18 141 -51 224 -67 22 -4
80 -7 128 -6 70 2 101 7 150 28 92 39 238 66 325 61 58 -3 87 -11 148 -41 41
-21 78 -35 81 -32 7 7 -71 188 -110 251 -16 28 -43 66 -58 86 -16 20 -29 46
-29 58 0 12 -6 21 -14 21 -20 0 -44 35 -42 63 1 19 8 23 56 28 90 9 168 47
365 175 174 113 289 158 468 179 31 4 57 11 57 15 0 11 -81 48 -128 59 -36 8
-117 55 -151 89 -44 43 -383 191 -476 207 l-39 7 74 69 c41 39 90 82 108 96
17 14 32 34 32 46 0 18 -5 19 -69 15 l-69 -5 25 41 c15 22 26 47 26 53 0 7 4
13 9 13 4 0 8 5 8 11 0 5 -5 7 -12 3 -7 -4 -8 -3 -4 5 4 6 11 9 16 6 5 -3 35
30 67 72 32 43 97 118 144 168 114 120 159 171 159 180 0 4 -6 3 -13 -3 -27
-23 -119 -35 -297 -38 -102 -2 -231 -7 -287 -12 -57 -4 -103 -5 -103 -2 0 3 9
33 19 66 32 102 54 252 47 322 -7 68 -42 248 -52 263 -12 20 -31 8 -28 -17 2
-19 -10 -38 -51 -78 -63 -63 -119 -86 -214 -86 -143 -1 -257 -33 -307 -87
l-22 -23 -7 47 c-11 76 -50 140 -132 217 -90 84 -182 196 -207 250 -10 21 -24
73 -30 115 l-12 76 -14 -40z m41 -157 c1 -29 195 -262 210 -252 5 3 12 -3 16
-13 4 -10 15 -24 25 -31 10 -7 16 -17 13 -22 -3 -5 -1 -11 5 -15 5 -3 10 -15
10 -26 0 -10 7 -19 15 -19 8 0 15 -5 15 -11 0 -5 -5 -7 -11 -3 -7 4 -10 1 -7
-7 3 -8 10 -14 16 -14 17 0 20 -7 27 -60 9 -62 8 -75 -4 -150 -33 -200 -67
-305 -156 -488 -40 -81 -52 -97 -69 -95 -17 2 -22 12 -26 51 -3 26 -8 47 -12
47 -5 0 -12 0 -17 0 -5 0 -15 -16 -23 -35 -10 -30 -17 -35 -38 -33 -22 3 -25
8 -28 48 -4 79 -10 92 -32 80 -16 -9 -20 -7 -21 7 -3 35 -1 89 5 153 4 35 5
62 2 60 -10 -11 -36 -229 -32 -277 3 -52 3 -53 -25 -53 -26 0 -29 3 -35 49 -3
27 -10 54 -14 61 -11 17 -30 3 -30 -22 0 -13 -5 -18 -14 -15 -17 7 -26 -13
-26 -54 0 -24 -4 -29 -24 -29 -13 0 -29 7 -36 15 -7 8 -22 15 -34 15 -13 0
-25 10 -33 28 -53 120 -94 233 -88 243 3 4 0 9 -7 11 -15 5 -24 123 -9 132 7
5 7 15 1 32 -12 31 -3 74 16 74 8 0 14 5 14 11 0 5 -5 7 -10 4 -6 -4 -5 5 2
19 6 14 14 26 18 26 4 0 13 13 20 29 11 29 130 147 198 199 110 83 193 202
208 298 6 40 23 62 25 32z m-1091 -288 c0 -3 12 -13 28 -22 15 -9 39 -28 54
-42 20 -19 42 -27 85 -32 32 -4 64 -12 72 -18 11 -8 13 -8 7 2 -11 19 153 16
178 -3 23 -17 40 -20 31 -5 -3 6 -1 10 5 10 6 0 16 -11 22 -25 6 -14 16 -25
21 -25 5 0 4 7 -3 15 -7 8 -8 15 -2 15 16 0 34 -28 27 -41 -5 -8 -1 -9 13 -5
33 11 40 -38 23 -142 -14 -85 -13 -90 12 -189 14 -56 32 -116 41 -135 9 -18
20 -47 25 -63 5 -17 16 -47 25 -67 14 -34 14 -38 1 -38 -9 0 -15 -9 -15 -22
l0 -21 -25 23 c-30 28 -39 22 -30 -19 9 -40 8 -46 -7 -46 -19 0 -21 -32 -4
-65 17 -35 11 -38 -21 -8 l-23 21 -9 -24 c-5 -13 -10 -19 -10 -13 -1 7 -8 11
-17 10 -9 0 -28 23 -48 60 -43 80 -48 87 -136 184 -103 114 -170 161 -292 205
-26 9 -49 24 -52 33 -16 56 -29 359 -15 367 5 4 7 16 4 27 -4 10 -4 47 0 81 7
55 9 59 21 42 8 -10 14 -21 14 -25z m2088 -95 c15 -108 15 -187 0 -196 -10 -7
-10 -9 0 -9 14 0 12 -20 -15 -150 -18 -85 -36 -132 -55 -147 -7 -5 -33 -15
-58 -22 -25 -7 -70 -27 -100 -44 -130 -73 -201 -142 -293 -282 -80 -123 -105
-151 -98 -112 1 4 -7 7 -16 5 -12 -2 -19 4 -21 20 -4 29 -28 39 -50 20 -32
-28 -47 -32 -26 -7 147 171 169 199 162 199 -3 0 -40 -39 -83 -87 -43 -49 -82
-90 -88 -92 -9 -3 -7 18 9 98 6 32 5 34 -16 28 -20 -5 -21 -3 -16 26 3 18 2
38 -3 45 -5 9 -1 33 10 62 10 26 15 50 12 54 -4 3 -1 6 5 6 7 0 12 6 12 13 0
7 11 42 26 78 31 79 58 204 65 299 3 37 26 73 40 64 5 -3 9 1 9 9 0 40 131 84
265 90 98 5 172 24 205 54 30 26 85 66 73 53 -15 -17 -17 -30 -3 -30 5 0 13
12 16 26 9 37 19 15 32 -71z m-2129 -439 c77 -12 174 -54 241 -104 48 -36 163
-161 209 -227 16 -22 62 -105 103 -185 82 -160 127 -242 169 -310 34 -55 28
-70 -14 -32 -122 111 -124 112 -262 171 -27 12 -52 25 -55 29 -5 7 -125 96
-188 141 -19 12 -35 21 -38 19 -2 -2 17 -17 41 -33 25 -15 51 -35 57 -43 7 -8
31 -29 53 -45 22 -17 31 -27 20 -23 -23 9 -90 21 -195 36 -119 17 -223 39
-274 59 -41 15 -50 24 -71 69 -13 29 -21 52 -18 52 3 0 1 6 -5 13 -9 11 -68
172 -93 255 -6 17 -13 32 -17 32 -4 0 -20 17 -36 37 -16 20 -24 33 -17 28 10
-6 11 -3 3 12 -6 10 -8 24 -4 30 14 22 282 35 391 19z m2519 -57 c102 1 106 0
77 -15 -71 -37 -187 -149 -206 -199 -6 -16 -15 -39 -19 -50 -40 -100 -50 -130
-50 -141 0 -8 -13 -43 -30 -77 -16 -35 -30 -68 -30 -74 0 -22 -49 -49 -97 -54
-5 -1 -15 -5 -24 -10 -24 -12 -251 -39 -336 -39 -42 0 -73 -4 -73 -10 0 -5 -5
-10 -11 -10 -5 0 -8 4 -5 9 3 4 -13 5 -37 0 -76 -15 -73 -9 23 42 52 27 100
55 105 61 15 16 1 9 -115 -54 -58 -31 -123 -59 -145 -63 -108 -19 -226 -70
-290 -126 -20 -18 -39 -29 -42 -25 -14 13 35 76 107 138 140 120 279 279 330
377 58 113 228 241 380 284 78 23 345 50 373 39 4 -2 56 -3 115 -3z m-1443
-313 c95 -14 181 -46 125 -46 -14 0 -32 -5 -40 -10 -24 -16 16 -40 66 -40 47
0 62 13 43 36 -12 14 -8 14 26 0 22 -9 49 -26 59 -36 20 -19 19 -20 -22 -69
-23 -27 -42 -54 -42 -60 0 -9 -28 -16 -52 -12 -4 0 -5 -6 -1 -15 5 -12 7 -13
14 -3 4 8 11 10 14 7 8 -8 -31 -43 -48 -43 -7 0 -13 -7 -13 -15 -1 -8 -2 -21
-3 -28 0 -6 -4 -11 -8 -11 -26 4 -46 -5 -70 -31 -14 -16 -29 -30 -32 -30 -3 0
-5 20 -3 45 5 60 -19 61 -49 3 -28 -55 -27 -55 -44 -32 -13 16 -16 17 -24 4
-5 -8 -16 -24 -24 -35 -15 -19 -16 -18 -22 17 -7 35 -37 78 -54 78 -14 0 -21
-30 -15 -58 l7 -27 -22 23 c-12 12 -33 22 -46 22 -16 0 -25 6 -25 15 0 8 -4
15 -10 15 -5 0 -9 3 -8 8 4 17 -24 92 -32 87 -6 -4 -10 1 -10 9 0 15 13 21 35
16 6 -1 29 -4 52 -7 37 -4 42 -2 40 15 -2 27 -67 48 -97 32 -11 -6 -18 -15
-15 -19 2 -5 -4 -11 -15 -14 -13 -3 -21 1 -25 14 -4 10 -10 19 -15 19 -5 0
-13 15 -18 32 -8 33 -7 35 56 89 7 5 28 13 47 16 19 3 35 9 35 13 0 8 24 18
75 31 31 8 141 5 210 -5z m-1364 -115 c-11 -7 -9 -10 8 -16 11 -3 33 -17 49
-29 50 -42 173 -81 302 -96 226 -27 285 -42 425 -110 89 -43 220 -140 205
-152 -3 -2 -57 -21 -121 -42 -138 -44 -215 -99 -258 -181 -14 -27 -30 -53 -36
-57 -12 -9 -117 48 -155 84 -15 14 -53 59 -84 100 -30 40 -74 96 -96 123 -23
28 -49 66 -60 85 -10 19 -40 62 -65 95 -26 33 -62 81 -82 108 -19 26 -41 47
-49 47 -8 0 -14 4 -14 10 0 5 8 6 18 3 14 -6 15 -4 5 9 -13 15 -8 28 11 28 6
0 5 -4 -3 -9z m2702 -120 c8 -1 -147 -157 -244 -245 -26 -24 -45 -46 -42 -50
4 -3 0 -6 -8 -7 -8 0 -61 -52 -118 -114 -97 -106 -114 -120 -211 -165 -9 -4
-31 -11 -49 -15 -25 -5 -32 -4 -26 5 6 9 0 10 -23 5 -24 -5 -35 -2 -52 15 -12
12 -19 28 -16 36 3 8 -3 32 -13 52 -48 94 -167 167 -289 178 -81 7 -82 14 -9
57 90 53 262 91 472 106 198 14 344 37 431 67 82 28 95 30 68 8 -18 -15 -18
-15 2 -5 12 6 25 7 29 3 5 -4 5 -2 2 4 -3 6 10 18 29 28 23 10 34 22 31 30 -4
9 0 13 11 11 9 -2 21 -4 25 -4z m-3 -216 c19 -8 46 -16 60 -17 14 -2 23 -7 20
-11 -3 -5 19 -17 49 -28 30 -10 57 -22 60 -26 3 -5 17 -10 31 -12 32 -4 131
-57 164 -87 14 -13 30 -24 36 -24 6 0 8 -4 5 -10 -4 -6 1 -7 11 -3 11 4 15 2
13 -6 -3 -7 -8 -12 -12 -12 -4 1 -14 1 -23 1 -8 0 -12 5 -8 11 3 6 -5 4 -19
-5 -13 -9 -29 -16 -33 -14 -5 1 -22 -1 -39 -5 -16 -4 -39 -9 -50 -11 -70 -14
-256 -120 -330 -189 -11 -10 -66 -42 -123 -70 -84 -42 -115 -52 -167 -55 -59
-4 -66 -2 -102 26 -21 17 -83 54 -137 83 l-99 53 49 16 c27 9 71 27 97 38 26
12 51 21 55 20 8 -1 70 24 127 52 l40 20 -35 -6 c-19 -4 -52 -15 -72 -25 -53
-27 -69 -24 -28 5 19 13 69 62 110 108 41 45 104 113 140 150 l66 66 54 -9
c30 -5 71 -16 90 -24z m-1438 -9 c4 -6 12 -5 21 3 12 10 20 7 44 -15 53 -50
126 -75 257 -88 157 -17 200 -38 279 -137 20 -25 37 -55 37 -67 0 -17 -5 -19
-32 -17 -18 2 -76 4 -129 5 -80 2 -104 -2 -145 -20 -53 -24 -62 -33 -142 -126
-42 -49 -61 -63 -105 -77 -30 -9 -61 -17 -69 -17 -27 0 -112 51 -158 94 -98
92 -147 126 -206 141 -56 14 -194 17 -194 4 0 -3 -15 -4 -32 -2 -27 3 -29 1
-13 -6 16 -8 17 -10 3 -10 -9 -1 -25 -4 -35 -7 -15 -5 -16 -4 -3 6 13 10 11
11 -7 7 -37 -8 -27 13 35 73 60 58 239 157 297 164 97 12 251 70 263 98 4 10
25 6 34 -6z m1776 -328 c-2 -6 -13 -16 -23 -22 -10 -6 -27 -18 -36 -26 -10 -8
-35 -24 -56 -35 -21 -11 -47 -28 -57 -37 -11 -10 -32 -24 -48 -30 -15 -7 -28
-16 -28 -20 0 -12 -61 -37 -78 -32 -13 5 -14 3 -4 -4 24 -17 -120 -98 -153
-86 -8 4 -15 1 -15 -6 0 -6 -4 -8 -10 -5 -5 3 -10 2 -10 -3 0 -13 -97 -14
-140 -1 -20 6 -46 19 -58 28 -23 17 -23 17 20 20 24 1 51 3 61 4 9 1 17 4 17
8 0 4 26 17 58 29 31 13 63 28 70 33 6 5 12 5 12 1 0 -5 -12 -17 -27 -26 -16
-10 -21 -17 -13 -17 20 0 48 22 52 40 2 7 13 21 24 29 119 84 144 100 152 100
5 0 15 7 22 15 13 16 45 21 36 6 -4 -5 17 -1 46 10 28 10 46 13 40 7 -7 -7
-12 -15 -12 -19 0 -10 62 13 78 29 8 7 18 10 23 7 5 -4 17 -1 26 4 24 14 36
14 31 -1z m-2083 -24 c19 -7 46 -26 62 -40 15 -15 38 -33 51 -42 l23 -15 -40
-20 c-50 -26 -47 -34 3 -10 25 11 41 14 50 8 91 -69 133 -90 181 -89 57 0 80
5 112 22 12 7 48 13 80 13 52 2 54 2 19 8 -41 6 -59 27 -32 37 9 3 16 12 16
19 0 6 24 35 53 62 63 59 124 79 215 69 65 -8 122 -24 122 -35 0 -4 18 -15 40
-24 22 -9 58 -25 80 -34 22 -9 40 -21 40 -26 0 -4 4 -6 9 -3 4 3 42 -11 82
-32 69 -35 130 -84 220 -173 42 -41 215 -288 211 -301 -1 -4 3 -8 9 -8 6 0 9
-7 5 -15 -8 -22 4 -45 28 -55 18 -7 18 -9 3 -9 -12 -1 -16 -5 -11 -13 5 -8 0
-7 -11 2 -11 9 -16 10 -11 3 4 -7 3 -13 -3 -13 -5 0 -13 5 -16 10 -4 6 -11 8
-16 4 -5 -3 -35 3 -67 14 -51 18 -202 40 -227 33 -5 -1 -34 -7 -65 -12 -30 -6
-84 -19 -120 -30 -199 -62 -369 -37 -531 77 -27 19 -51 34 -54 34 -13 0 -95
79 -95 92 0 4 9 30 20 58 23 58 25 97 9 170 -13 62 -21 59 -21 -7 0 -91 -52
-137 -153 -137 -33 0 -110 4 -170 9 -98 7 -115 6 -145 -11 -19 -10 -39 -17
-43 -16 -5 1 -6 -2 -3 -7 3 -5 -1 -12 -9 -15 -9 -3 -20 -17 -25 -32 l-10 -26
-31 43 c-17 24 -44 55 -59 69 -59 53 -149 162 -171 206 -31 64 -27 110 11 149
25 26 42 34 88 39 31 4 80 11 107 15 61 11 144 4 190 -15z m365 -552 c0 -10
10 -26 22 -36 17 -15 20 -15 15 -3 -3 9 -1 18 6 21 7 3 2 3 -10 0 -19 -4 -23
-1 -22 18 1 16 3 18 6 6 2 -9 10 -15 18 -12 7 3 19 -4 25 -16 6 -12 19 -29 29
-39 11 -11 16 -29 14 -56 -2 -22 -3 -59 -4 -82 -1 -40 -3 -43 -32 -47 -79 -12
-176 -15 -182 -6 -3 5 1 47 9 92 9 46 17 94 18 108 5 34 17 52 31 43 7 -4 4
-9 -9 -14 -17 -7 -17 -8 -1 -8 10 -1 15 -5 12 -11 -3 -5 -2 -10 4 -10 6 0 9
15 8 33 -3 28 0 33 20 35 16 1 23 -4 23 -16z m1006 -124 c4 4 5 3 2 -3 -4 -6
14 -10 45 -11 57 -1 217 -49 217 -65 0 -5 -15 -2 -32 8 -27 14 -65 17 -210 19
-112 1 -178 -1 -178 -8 0 -5 -12 -7 -27 -4 -62 13 -83 14 -78 6 3 -4 -9 -10
-25 -12 -38 -6 -38 -2 3 22 34 21 62 27 52 10 -10 -16 41 -12 55 5 13 16 40
20 40 6 0 -9 25 -7 80 8 34 9 22 15 -25 12 l-20 -1 20 9 c11 4 32 5 47 0 14
-4 30 -4 34 -1z m-1746 -106 c0 -13 32 -12 57 0 17 8 30 8 49 -1 14 -6 40 -14
57 -17 56 -9 103 -22 84 -23 -27 -2 -10 -21 19 -21 13 0 24 -4 24 -9 0 -5 -12
-8 -26 -5 -16 3 -23 1 -19 -6 3 -5 2 -10 -4 -10 -16 0 -22 18 -9 23 7 3 -6 6
-29 6 -28 1 -43 -3 -43 -11 0 -8 -3 -9 -8 -3 -8 12 -72 36 -72 28 0 -3 8 -12
18 -20 15 -12 14 -13 -13 -8 -99 17 -167 33 -146 34 37 2 21 10 -31 16 -31 4
-49 1 -54 -6 -5 -9 -1 -10 14 -7 12 4 22 2 22 -3 0 -13 -44 -11 -59 4 -11 10
-13 10 -7 0 5 -9 0 -13 -13 -13 -23 0 -36 16 -21 25 5 3 10 1 10 -6 0 -8 6 -7
18 4 9 8 49 20 87 25 96 13 95 13 95 4z m849 -59 c-29 -47 -60 -58 -162 -57
-105 1 -130 11 -111 42 9 13 31 18 105 23 187 11 180 11 168 -8z"/>
<path d="M2410 2523 c-54 -7 -70 -14 -70 -29 0 -8 7 -17 15 -20 8 -4 15 -13
15 -21 0 -13 -9 -14 -50 -9 -28 4 -58 9 -68 12 -14 5 -15 4 -2 -5 12 -9 11
-11 -8 -11 -13 0 -21 3 -19 8 3 4 -24 7 -59 7 -36 1 -69 6 -76 13 -14 14 -28
16 -28 3 0 -4 28 -19 63 -32 54 -21 79 -24 197 -24 150 0 233 16 228 44 -2 10
-12 15 -28 14 -77 -5 -98 -9 -97 -17 1 -5 -4 -11 -12 -14 -8 -2 -11 0 -7 6 3
6 0 12 -6 15 -7 2 2 7 19 11 18 4 36 12 39 18 10 16 -18 34 -46 31z"/>
<path d="M710 1768 c-138 -38 -265 -85 -320 -118 -107 -64 -200 -146 -200
-176 0 -29 126 -141 194 -173 127 -60 159 -72 321 -116 171 -47 229 -56 109
-16 -37 12 -79 30 -93 40 -14 10 -37 21 -51 25 l-25 7 25 -16 25 -15 -30 6
c-16 3 -61 21 -98 40 -37 19 -77 34 -87 34 -25 0 -130 58 -185 103 -5 4 -18
13 -28 20 -9 7 -20 28 -23 48 -6 33 -2 41 33 75 21 22 49 47 62 58 43 33 217
115 281 132 59 15 156 53 135 52 -5 0 -26 -4 -45 -10z"/>
<path d="M3966 1761 c-3 -4 23 -16 57 -26 85 -25 200 -71 261 -105 28 -15 80
-43 116 -63 69 -37 79 -53 60 -95 -13 -31 -102 -90 -175 -117 -27 -10 -105
-45 -173 -77 -67 -33 -138 -62 -157 -65 -19 -3 -35 -11 -35 -18 0 -16 135 21
205 57 323 164 347 180 361 232 11 47 -9 70 -107 120 -52 27 -98 52 -104 56
-23 16 -274 110 -296 110 -4 0 -10 -4 -13 -9z"/>
<path d="M1920 473 c0 -6 -8 -20 -17 -29 -14 -14 -15 -17 -3 -12 16 6 44 -35
32 -47 -11 -11 -41 -5 -36 8 3 8 -1 19 -9 26 -11 9 -17 8 -27 -4 -11 -13 -10
-14 6 -9 13 4 11 1 -6 -12 -15 -11 -40 -18 -63 -18 -28 1 -35 -1 -26 -8 10 -7
8 -8 -9 -5 -13 3 -20 1 -16 -5 4 -6 -1 -8 -13 -4 -13 4 -26 -1 -39 -16 -15
-18 -16 -20 -1 -9 9 7 17 9 17 4 0 -5 7 -10 15 -10 8 0 15 4 15 8 0 5 12 8 28
8 48 1 72 5 72 13 0 11 78 10 123 -3 37 -10 88 -3 71 10 -15 11 -14 29 2 35
11 4 15 2 11 -8 -3 -8 2 -20 11 -28 13 -11 14 -11 8 1 -8 13 -4 13 54 -7 9 -3
7 2 -5 12 l-20 17 20 -9 c36 -17 75 -23 75 -12 0 5 -8 10 -18 10 -26 0 -34 11
-21 26 17 21 -37 31 -59 11 -14 -13 -19 -13 -29 -2 -7 8 -9 16 -4 20 5 3 11 0
13 -6 2 -6 14 -4 33 6 l30 17 -27 -6 c-23 -5 -28 -3 -28 14 0 24 -13 26 -30 5
-7 -8 -19 -15 -26 -15 -8 0 -14 -7 -14 -15 0 -16 -12 -20 -23 -9 -4 4 3 15 15
25 11 11 16 19 10 19 -6 0 -14 -5 -17 -10 -4 -6 -12 -10 -18 -9 -7 1 -19 1
-27 0 -13 -1 -13 -2 0 -11 8 -5 11 -12 7 -17 -9 -9 -28 17 -21 29 3 4 0 16 -5
25 -6 10 -11 13 -11 6z"/>
<path d="M2485 460 c7 -11 -31 -23 -46 -14 -8 5 -9 3 -4 -6 6 -10 4 -12 -9 -7
-14 6 -15 3 -6 -13 10 -18 8 -20 -17 -19 -24 0 -25 2 -9 8 19 7 19 8 -2 13
-14 4 -20 11 -17 20 5 11 -5 15 -45 15 -32 0 -46 -3 -38 -9 8 -5 -3 -7 -27 -3
-29 4 -35 3 -20 -4 17 -8 18 -10 3 -10 -30 -1 -20 -21 10 -21 15 0 45 -4 67
-8 38 -6 36 -7 -30 -12 -38 -3 -71 -2 -73 1 -2 4 -12 5 -22 2 -13 -4 -20 0
-20 10 0 8 -7 18 -16 21 -24 9 -31 7 -11 -5 9 -5 17 -17 17 -24 0 -9 10 -15
26 -15 21 0 24 -4 19 -20 -5 -16 -2 -20 17 -19 22 0 22 1 3 8 -17 7 -14 10 20
20 64 18 155 12 155 -11 0 -5 -6 -6 -12 -2 -10 5 -10 4 -2 -5 12 -13 47 -4 39
9 -3 5 0 12 6 16 8 4 9 3 5 -4 -5 -9 3 -10 31 -6 21 3 41 11 45 18 8 11 12 1
9 -18 -1 -5 6 -3 15 5 10 8 15 9 11 2 -4 -6 -2 -15 4 -19 7 -4 9 -3 6 3 -4 6
3 19 14 29 14 13 20 14 17 4 -2 -9 8 -16 27 -21 24 -5 25 -7 8 -8 -13 0 -23
-5 -23 -11 0 -6 9 -6 26 0 36 14 100 12 164 -5 68 -18 89 -18 35 1 l-40 14 43
-6 c30 -4 42 -2 42 7 0 7 6 5 15 -7 8 -10 15 -13 15 -7 0 18 -47 46 -65 39
-11 -4 -14 -2 -9 6 5 7 0 9 -14 6 -12 -4 -20 -2 -16 3 3 5 0 9 -5 9 -6 0 -11
8 -11 19 0 16 -8 18 -54 17 -32 0 -54 -5 -53 -11 1 -5 -8 -9 -21 -7 -13 2 -29
-1 -36 -8 -10 -8 -15 -7 -19 3 -4 10 5 13 33 13 21 -1 36 2 34 6 -3 4 -36 6
-75 4 -43 -1 -80 2 -95 10 -14 7 -22 9 -19 4z"/>
</g>
</svg>
